<svg width="24" height="24" viewBox="0 0 24 24" fill="none" xmlns="http://www.w3.org/2000/svg">
<path d="M8.03325 14.165L8.02498 14.1746L8.01579 14.1833C7.94416 14.2509 7.85991 14.3039 7.76784 14.339C7.67577 14.3741 7.57768 14.3907 7.47917 14.388C7.38067 14.3852 7.28368 14.363 7.19374 14.3227C7.1038 14.2825 7.02268 14.2249 6.95499 14.1533C6.88731 14.0816 6.8344 13.9974 6.79928 13.9053C6.76416 13.8132 6.74751 13.7152 6.7503 13.6166C6.75309 13.5181 6.77525 13.4212 6.81552 13.3312C6.85402 13.2452 6.90836 13.1673 6.97566 13.1014L11.4711 7.97196L11.4788 7.96313L11.4874 7.95507C11.6267 7.82337 11.8111 7.74999 12.0028 7.74999C12.1945 7.74999 12.3789 7.82337 12.5182 7.95507L12.5268 7.96313L12.5345 7.97195L17.0294 13.1002C17.0976 13.1654 17.1529 13.2429 17.1924 13.3287L16.9654 13.4333L17.1924 13.3287C17.234 13.419 17.2572 13.5166 17.2608 13.6159C17.2643 13.7153 17.2481 13.8143 17.213 13.9073C17.1779 14.0003 17.1247 14.0854 17.0565 14.1577C16.9882 14.23 16.9063 14.2879 16.8155 14.3283C16.7246 14.3686 16.6267 14.3905 16.5273 14.3927C16.4279 14.3948 16.3291 14.3772 16.2366 14.3409C16.1441 14.3045 16.0597 14.2502 15.9884 14.181L15.9806 14.1733L15.9734 14.165L12.0028 9.57066L8.03325 14.165Z" fill="#2B2B2B" stroke="#2B2B2B" stroke-width="0.5"/>
</svg>
