<svg width="144" height="144" viewBox="0 0 144 144" fill="none" xmlns="http://www.w3.org/2000/svg">
<ellipse cx="97.8865" cy="71.5" rx="36.1932" ry="45.5" fill="#2B2B2B"/>
<ellipse cx="46.6306" cy="71.5" rx="36.7102" ry="45.5" fill="#2B2B2B"/>
<path d="M86.9876 96.7387C85.795 94.7042 84.8207 92.5528 83.9476 90.3625C79.9411 80.2759 78.1872 69.1682 79.8086 58.4347C81.1571 49.4784 84.9454 40.8261 90.8929 34.0367C77.4779 38.0589 67.4849 53.4148 67.4849 71.7561C67.4849 93.1608 81.0869 110.512 97.8615 110.512C99.1554 110.512 100.426 110.395 101.673 110.2C95.6088 107.254 90.3862 102.554 86.9798 96.7309L86.9876 96.7387Z" fill="#EFEFEF"/>
<path d="M128.246 71.7561C128.246 50.3514 114.644 33 97.8695 33C95.4687 33 93.1381 33.3664 90.8931 34.0367C84.9457 40.8183 81.1573 49.4784 79.8088 58.4347C78.1953 69.1682 79.9413 80.2759 83.9479 90.3625C84.8209 92.5528 85.7953 94.7042 86.9879 96.7387C90.3943 102.561 95.6168 107.254 101.681 110.208C116.655 107.815 128.246 91.5239 128.246 71.7639V71.7561Z" fill="white"/>
<path d="M33.367 96.7386C32.1744 94.7042 31.2 92.5528 30.327 90.3624C26.3204 80.2759 24.5666 69.1682 26.1879 58.4346C27.4585 49.985 30.9038 41.8004 36.2901 35.1981C24.473 40.5064 16 54.8646 16 71.7561C16 93.1608 29.6021 110.512 46.3766 110.512C47.0937 110.512 47.8031 110.465 48.5124 110.403C42.2609 107.472 36.8513 102.694 33.3592 96.7308L33.367 96.7386Z" fill="#EFEFEF"/>
<path d="M76.754 71.7561C76.754 50.3514 63.1598 33 46.3774 33C42.8386 33 39.4478 33.7795 36.2909 35.1982C30.9046 41.7926 27.4593 49.985 26.1887 58.4347C24.5752 69.1682 26.3212 80.2759 30.3278 90.3625C31.2008 92.5528 32.1752 94.7042 33.3678 96.7387C36.8599 102.702 42.2617 107.48 48.521 110.411C64.2978 109.008 76.7618 92.2488 76.7618 71.7561H76.754Z" fill="white"/>
<path d="M58.0309 90.4247C66.1113 90.4247 72.6618 82.0664 72.6618 71.756C72.6618 61.4455 66.1113 53.0873 58.0309 53.0873C49.9504 53.0873 43.3999 61.4455 43.3999 71.756C43.3999 82.0664 49.9504 90.4247 58.0309 90.4247Z" fill="#1C1C1E"/>
<path d="M114.192 84.7579C113.491 84.7579 112.789 84.4929 112.259 83.9551C106.709 78.3739 92.3122 74.4375 92.1641 74.3986C91.33 74.1725 90.6441 73.5645 90.3323 72.7538C90.0205 71.9432 90.1063 71.039 90.5662 70.3062C95.9914 61.7319 112.618 55.8468 113.327 55.6051C114.746 55.1062 116.305 55.8546 116.804 57.281C117.303 58.6997 116.554 60.2587 115.128 60.7575C111.542 62.0125 102.64 65.8086 97.6517 70.3842C102.812 72.1069 111.566 75.5288 116.133 80.12C117.193 81.1879 117.193 82.9184 116.126 83.9785C115.595 84.5085 114.894 84.7735 114.2 84.7735L114.192 84.7579Z" fill="#0A0A0A"/>
</svg>
