<svg width="24" height="24" viewBox="0 0 24 24" fill="none" xmlns="http://www.w3.org/2000/svg">
<path d="M15.9668 9.83499L15.975 9.82542L15.9842 9.81673C16.0558 9.74905 16.1401 9.69614 16.2322 9.66102C16.3242 9.6259 16.4223 9.60925 16.5208 9.61204C16.6193 9.61483 16.7163 9.63699 16.8063 9.67726C16.8962 9.71753 16.9773 9.77512 17.045 9.84674C17.1127 9.91837 17.1656 10.0026 17.2007 10.0947C17.2358 10.1868 17.2525 10.2848 17.2497 10.3834C17.2469 10.4819 17.2248 10.5788 17.1845 10.6688C17.146 10.7548 17.0916 10.8327 17.0243 10.8986L12.5289 16.028L12.5212 16.0369L12.5126 16.0449C12.3733 16.1766 12.1889 16.25 11.9972 16.25C11.8055 16.25 11.6211 16.1766 11.4818 16.0449L11.4732 16.0369L11.4655 16.0281L6.97059 10.8998C6.9024 10.8346 6.84707 10.7571 6.80757 10.6713L7.03464 10.5667L6.80757 10.6713C6.76598 10.581 6.74275 10.4834 6.73922 10.3841C6.73569 10.2847 6.75194 10.1857 6.78701 10.0927C6.82208 9.99968 6.87528 9.91457 6.94352 9.84231C7.01176 9.77004 7.09368 9.71205 7.18452 9.67171C7.27536 9.63138 7.37331 9.60949 7.47268 9.60732C7.57205 9.60516 7.67086 9.62276 7.76337 9.65911C7.85589 9.69545 7.94025 9.74982 8.01157 9.81905L8.01944 9.82668L8.0266 9.83497L11.9972 14.4293L15.9668 9.83499Z" fill="currentColor" stroke="currentColor" stroke-width="0.5"/>
</svg>