<svg width="24" height="24" viewBox="0 0 24 24" fill="none" xmlns="http://www.w3.org/2000/svg">
<path d="M9.13284 6.33267L9.12518 6.32605L9.11823 6.3187C9.03703 6.23276 8.97354 6.13168 8.9314 6.02121C8.88927 5.91074 8.8693 5.79305 8.87264 5.67487C8.87598 5.55668 8.90257 5.44031 8.95089 5.3324C8.99921 5.22449 9.0683 5.12716 9.15424 5.04595C9.24017 4.96475 9.34126 4.90126 9.45173 4.85912C9.56219 4.81698 9.67988 4.79702 9.79807 4.80036C9.91625 4.8037 10.0326 4.83029 10.1405 4.87861C10.2454 4.92556 10.3403 4.99214 10.4201 5.07472L17.6035 11.3703L17.6106 11.3765L17.6171 11.3833C17.7751 11.5504 17.8631 11.7717 17.8631 12.0017C17.8631 12.2317 17.7751 12.453 17.6171 12.6201L17.6106 12.6269L17.6035 12.6331L10.4211 18.9285C10.342 19.0124 10.2474 19.0804 10.1426 19.1287C10.0343 19.1786 9.91714 19.2064 9.79796 19.2107C9.67879 19.2149 9.55996 19.1954 9.44838 19.1533C9.3368 19.1113 9.2347 19.0474 9.14799 18.9656C9.06129 18.8837 8.99172 18.7854 8.94332 18.6764C8.89492 18.5674 8.86866 18.4499 8.86607 18.3307C8.86347 18.2115 8.88459 18.0929 8.92819 17.9819C8.9718 17.8709 9.03703 17.7697 9.12008 17.6842L9.12619 17.6779L9.13282 17.6721L15.6941 12.0017L9.13284 6.33267Z" fill="#2B2B2B" stroke="#2B2B2B" stroke-width="0.4"/>
</svg>
