<svg width="24" height="24" viewBox="0 0 24 24" fill="none" xmlns="http://www.w3.org/2000/svg">
<path d="M16.5957 6.33267L16.6033 6.32605L16.6103 6.3187C16.6915 6.23276 16.755 6.13168 16.7971 6.02121C16.8392 5.91074 16.8592 5.79305 16.8559 5.67487C16.8525 5.55668 16.8259 5.44031 16.7776 5.3324C16.7293 5.22449 16.6602 5.12716 16.5743 5.04595C16.4883 4.96475 16.3873 4.90126 16.2768 4.85912C16.1663 4.81698 16.0486 4.79702 15.9304 4.80036C15.8123 4.8037 15.6959 4.83029 15.588 4.87861C15.4831 4.92556 15.3882 4.99214 15.3084 5.07472L8.12498 11.3703L8.11792 11.3765L8.11147 11.3833C7.95346 11.5504 7.86542 11.7717 7.86542 12.0017C7.86542 12.2317 7.95346 12.453 8.11147 12.6201L8.11791 12.6269L8.12497 12.6331L15.3074 18.9285C15.3866 19.0124 15.4811 19.0804 15.5859 19.1287C15.6942 19.1786 15.8114 19.2064 15.9306 19.2107C16.0497 19.2149 16.1686 19.1954 16.2801 19.1533C16.3917 19.1113 16.4938 19.0474 16.5805 18.9656C16.6672 18.8837 16.7368 18.7854 16.7852 18.6764C16.8336 18.5674 16.8599 18.4499 16.8624 18.3307C16.865 18.2115 16.8439 18.0929 16.8003 17.9819C16.7567 17.8709 16.6915 17.7697 16.6084 17.6842L16.6023 17.6779L16.5957 17.6721L10.0344 12.0017L16.5957 6.33267Z" fill="#2B2B2B" stroke="#2B2B2B" stroke-width="0.4"/>
</svg>
