<svg width="24" height="24" viewBox="0 0 24 24" fill="none" xmlns="http://www.w3.org/2000/svg">
<g clip-path="url(#clip0_911_1375)">
<path d="M20.8625 9.4926H20.1331C19.8515 9.48538 19.6204 9.71286 19.6204 9.99449L19.5699 18.8876C19.5699 19.0537 19.4326 19.1873 19.2702 19.1837H18.743C18.5769 19.1801 18.4433 19.0465 18.4469 18.8804L18.5119 6.70875C18.5119 6.06605 18.2231 5.45945 17.7212 5.05866L13.1211 1.39019C12.4712 0.87386 11.5505 0.870249 10.8969 1.39019L6.36191 4.99367C5.86363 5.38724 5.57478 5.98661 5.57117 6.6221L5.50617 18.8082C5.50617 18.9743 5.36897 19.1079 5.20648 19.1043H4.69377C4.52767 19.1007 4.39408 18.9671 4.39769 18.801L4.44824 10.0125C4.44824 9.73091 4.22437 9.49982 3.94274 9.49982H3.21338C2.02907 9.48899 1.0614 10.4458 1.05418 11.6301L1.00002 20.498C0.996408 21.1443 1.51635 21.6679 2.16266 21.6715L4.37963 21.6823L21.776 21.7762C22.4223 21.7798 22.9459 21.2599 22.9495 20.6136L22.9567 19.1982L23 11.6446C23.0072 10.4603 22.0504 9.4926 20.8661 9.48538L20.8625 9.4926ZM11.4819 8.50688C13.1645 8.13498 14.6304 9.60092 14.2549 11.2799C14.0671 12.1284 13.3847 12.8108 12.5362 12.9986C10.8536 13.3705 9.38768 11.9046 9.76319 10.2256C9.95095 9.37706 10.6334 8.69464 11.4819 8.50688Z" fill="#7F71FB"/>
</g>
<defs>
<clipPath id="clip0_911_1375">
<rect width="22" height="20.7832" fill="white" transform="translate(1 1)"/>
</clipPath>
</defs>
</svg>
